<svg width="28" height="28" viewBox="0 0 253 254" fill="none" xmlns="http://www.w3.org/2000/svg"><circle cx="126.5" cy="126.5" r="96.14" fill="none" stroke="#ffffff" stroke-width="1" opacity="0.05"></circle><rect x="116.38" y="6.324999999999999" width="20.240000000000002" height="48.07" rx="10.120000000000001" fill="#ffffff" opacity="1"></rect><rect x="151.10977378723288" y="13.665413982712295" width="20.240000000000002" height="46.37341176470588" rx="10.120000000000001" fill="#ffffff" opacity="1" transform="rotate(21.176470588235304 161.2297737872329 36.852119865065234)"></rect><rect x="181.14909918018" y="33.11327093369995" width="20.240000000000002" height="44.67682352941176" rx="10.120000000000001" fill="#ffffff" opacity="1" transform="rotate(42.352941176470594 191.26909918018 55.45168269840583)"></rect><rect x="202.44099883087569" y="62.156596828584796" width="20.240000000000002" height="42.98023529411764" rx="10.120000000000001" fill="#ffffff" opacity="1" transform="rotate(63.529411764705884 212.5609988308757 83.64671447564362)"></rect><rect x="212.10988370900463" y="96.98749639178638" width="20.240000000000002" height="41.283647058823526" rx="10.120000000000001" fill="#ffffff" opacity="1" transform="rotate(84.70588235294117 222.22988370900464 117.62931992119815)"></rect><rect x="208.84991733463482" y="133.01643045376537" width="20.240000000000002" height="39.58705882352941" rx="10.120000000000001" fill="#ffffff" opacity="1" transform="rotate(105.88235294117648 218.96991733463483 152.80995986553006)"></rect><rect x="193.10137623072222" y="165.49205864738406" width="20.240000000000002" height="37.890470588235296" rx="10.120000000000001" fill="#ffffff" opacity="1" transform="rotate(127.05882352941177 203.22137623072223 184.4372939415017)"></rect><rect x="166.99118813902902" y="190.1429342525745" width="20.240000000000002" height="36.19388235294117" rx="10.120000000000001" fill="#ffffff" opacity="1" transform="rotate(148.23529411764704 177.11118813902903 208.23987542904507)"></rect><rect x="134.04567864288506" y="203.75438674478679" width="20.240000000000002" height="34.49729411764706" rx="10.120000000000001" fill="#ffffff" opacity="1" transform="rotate(169.41176470588238 144.16567864288507 221.00303380361032)"></rect><rect x="98.71432135711494" y="203.75438674478679" width="20.240000000000002" height="34.49729411764706" rx="10.120000000000001" fill="#ffffff" opacity="1" transform="rotate(190.58823529411762 108.83432135711494 221.00303380361032)"></rect><rect x="65.768811860971" y="190.14293425257452" width="20.240000000000002" height="36.19388235294117" rx="10.120000000000001" fill="#ffffff" opacity="1" transform="rotate(211.76470588235293 75.888811860971 208.2398754290451)"></rect><rect x="39.65862376927777" y="165.49205864738406" width="20.240000000000002" height="37.890470588235296" rx="10.120000000000001" fill="#ffffff" opacity="1" transform="rotate(232.94117647058823 49.77862376927777 184.4372939415017)"></rect><rect x="23.91008266536517" y="133.01643045376537" width="20.240000000000002" height="39.58705882352941" rx="10.120000000000001" fill="#ffffff" opacity="1" transform="rotate(254.11764705882354 34.03008266536517 152.80995986553006)"></rect><rect x="20.650116290995374" y="96.98749639178642" width="20.240000000000002" height="41.283647058823526" rx="10.120000000000001" fill="#ffffff" opacity="1" transform="rotate(275.2941176470588 30.770116290995375 117.62931992119819)"></rect><rect x="30.31900116912428" y="62.15659682858484" width="20.240000000000002" height="42.98023529411764" rx="10.120000000000001" fill="#ffffff" opacity="1" transform="rotate(296.4705882352941 40.43900116912428 83.64671447564366)"></rect><rect x="51.61090081981993" y="33.113270933699994" width="20.240000000000002" height="44.67682352941176" rx="10.120000000000001" fill="#ffffff" opacity="1" transform="rotate(317.6470588235294 61.73090081981994 55.451682698405875)"></rect><rect x="81.65022621276711" y="13.665413982712295" width="20.240000000000002" height="46.37341176470588" rx="10.120000000000001" fill="#ffffff" opacity="1" transform="rotate(338.8235294117647 91.77022621276711 36.852119865065234)"></rect></svg>
